<svg xmlns="http://www.w3.org/2000/svg" xmlns:xlink="http://www.w3.org/1999/xlink"><defs><linearGradient id="a"><stop offset="0" stop-color="#d4e3eb" stop-opacity=".5"/><stop offset="1" stop-color="#d4e3eb" stop-opacity="0"/></linearGradient><linearGradient xlink:href="#a" id="b" x1="64.8" y1="175.6" x2="114.7" y2="175.6" gradientUnits="userSpaceOnUse"/></defs><path d="M255 179a107 100 0 11-213 0 107 100 0 11213 0z" transform="matrix(1.08865 0 0 1.12618 -15 -32)" fill="#002452" stroke="#000"/><path d="M35 141l7-9c6 1 10 4 13 8l3 3h2l5 3-1-2 2 3 3 1h1l7 3 4-5-1-1h4l1-6-3 3-5-1v-2h-1l-2-4h-2v3h-2l1-6-4-1-2-2 3-1v-1l-3-1 3-4v-5h-3l2-5 1-6h-2v-2l2-1v-7c2-6 4-6 6-8v-6a95 95 0 00-39 59z" fill="#8ac2ff"/><path d="M102 139l3 5 1 5 7-1c12 9 7 11 6 14l11 1v-2h5l-1-3 1-2v-3l2-2v-1h-4l-1-5 4-4 2-6v-3l45 6 3 3-1 6 3 2v5h-7l-3 1 9 2c3 5 5 6 7 7v17l-18 24-7 1-5 2-8-1c-5-2-4-4-1-7 3-2 0-5-3-8 2-2 2-4 1-6l-11-9-2 8h-3v3l1 1v5l-4-3-2-1v3l-2 1-9-6-1-4h-1l-2-3 2-3-3-4-2 3h-3l-1-3 1-2h2l1-3-2-4 3-1v-8l-5-3-4-1 7 5-1 3h-1c-2-2-1-4-7-6v-4l-3-2 1-9z" fill="#5ea9fe"/><path d="M39 122c-1-60 35-98 94-108 44-2 66 18 89 28l6-13 3 1 6 7 7 1 13 9 39-3-1 11c-5 4-11 9-12 12s-2 4-4 5c0 6 1 9-2 13l-3 21c-5 4-10 8-14 14l-1 5c1 1-2 1-4 4-3 3-5 3-9 2l-8-1-2-3-10-1h-2l-7-7c-10-1-8-11-12-18l-9-10c-6 2-10 7-17 18-1 11-4 13-2 32l2 9 4 16c3 5 7 10 7 16 4 6 4 11 4 16 4 4 5 8 5 11-1 3-1 8-5 9l-8-1-1-2-6-1-4-6c1-6-4-12-11-18-1-2-6-6-4-7 2-2 1-8-3-11-3-2-4-6-7-9 1 2-6-14-5-16 1-5-4-18-6-18v-26c-4-19-10-44-47-30-8 2-27 10-53 49z" fill="#f1f6f8" stroke="#000"/><path d="M146 152c18-21 33-48 50-63 4 7 7 7 10 13s1 14 6 15c5 2 7 6 12 9l13 1c1-1 0 2 1 2 3 2 12 3 13 2l15-28-20-50-40-18L71 59 43 86l-5 39c8-13 20-32 32-39 57-42 68 5 67 9l7 41 2 16z" fill="#d0e0e9"/><path d="M191 258l3-4v-5s9-9 10-8h10v-3l5-1 5-5h2v-3l2-2v-4l3-5 1-5 3-3 3 2 7-1 1 9-3 6-1 7-2 1v4l-6 4 1 1c-8 12-23 16-44 15z" fill="#056eff"/><path d="M210 257c22-23 18-29 18-29h-2v4l-2 1-6 4-4 1-1 3-10 1-9 7v6l-3 3c8 2 13 0 19-1z" fill="#00c5ff"/><path d="M91 157c25 55 40 83 103 101 33 2 51-25 62-47 2 12 1 24 0 36-12 19-24 34-49 35-29 4-61 1-102-29-48-47-38-72-40-94 7-19 16-16 26-2z" fill="#aad4ff" stroke="#000"/><path d="M69 195c16-1 34 6 46 10-7-10-15-26-23-43-3-7-8-16-18-16-7 5-11 16-9 30 1 6 1 14 4 19z" fill="#f2f2f2" stroke="url(#b)"/><path d="M65 175c9 2 14-6 20-14v12l-19 11-1-9z" fill="#002655"/><path d="M72 208l24-14-3-7c-7 5-11 13-25 13l4 8z" fill="#00244f"/><path d="M77 217c9-3 18-7 25-13l3 5c-9 5-17 11-23 18l-5-10z" fill="#002045"/><path d="M89 236c9-5 19-10 25-17l5 5c-4 10-13 16-21 22l-9-10z" fill="#002655"/><path d="M106 253c31-16 25-19 25-19v1c2 4-1 13-13 26-5-2-10-4-12-8z" fill="#002a5d"/><path d="M130 267l14-22c0 4-1 9 2 12l2 1c-1 6-4 11-3 17-10-3-12-5-15-8z" fill="#00346f"/><path d="M156 278c8-3 4-24 4-24l13 14c-2 7-2 13 3 15-7-1-13 1-20-5z" fill="#003e84"/><path d="M188 263c20 6 13 12 20 19-6 1-11 2-20 1 7-4 4-12-1-20z" fill="#004fa5"/><path d="M225 262c4 5 8 8 11 9-5 4-10 7-16 9 2-4 1-10-1-16-1-2 5-2 6-2z" fill="#005cc1"/><path d="M213 79c-2-7-1-16 7-33 1-2 2-2 2-5l6-12 4 1c2 3 3 6 5 7l6 1 14 9 38-2 1 11-11 8-4 7-2 1v8l-1 3-1 1-4 22c-5 5-13 8-14 19l-3 3-3 3h-4c-1-8-4-7-3-11l7-10 5-1 3-2-12-2-3 5-14-16 1 16-8-1c-3-5-12-8-14-14-2-3-1-8 3-13l7 5 7 1 8-4v-8l-5-19-4-9c-5 11-3 24-14 31z" fill="#6db5ff"/><path d="M40 103l13-26 16-10 54-1c9 1 11 7 13 13 8 1 9 5 8 9l-6 9 2 32 5 8 1-21c0-13 3-16 6-19 33 0 33-25 35-50 1-1 2-3 5-4l23-4C113-3 54 32 40 103z" fill="#5babfe"/><path d="M62 50l7 2 3-3 4 8 3 1v-3l-7-13c6 2 11 8 14 9V40l2-2 3 9c5 6 6 10 8 14 3 1 5 0 6-1-2 0-4-1-5-6v-7l-3-1-1-11h3l7 21 14 8 4 1v-2c-6-2-11-9-16-13-4-9-1-10-2-15l4 7 10 11v-4c-9-12-4-13-6-19l3 1 1 9c5 5 14 8 14 17 2-2 7 4 9 14V60c-6-5-12-14-17-23-3-5-2-9-1-13 2 2 6 2 7 5l11 23c8 6 9 12 8 19 6 4 6 11 7 17l-1-13-12-43h5l2 6 5 3 4 13 1 23 1 1v14l3-14-2-3V51c-3-3-2-7-3-10l2-7h3v12l2 6V41l8-5-2 20 4-19 6 1c0 16-3 28-4 41 5-6 4-22 6-34l10-11 2 2-7 18-4 18 1 1 8-21v-4l4-9 7 5 11-5c-32-21-96-50-154 11z" fill="#004ca0"/><path d="M226 68l1-14 6-13v-3l6 2 18 10h25l-22 8h-7l-17-13c-6 7-8 15-10 23z" fill="#003a7b"/><path d="M237 98c10 9 9 11 9 11v-7c-3-3-6-3-9-4zM248 127l3-3 5 1-4 4-4-2z" fill="#001c41"/><g><path d="M240 120h-8c-1-1-4 0-7 2l-7 6 7-7 6-3h9v2zM234 117l-10 1-11 4 9-5c5-2 9-1 13-1l-1 1z" fill="#9fceff"/><path d="M241 122l-12 3c-5 1-8 6-12 9l6-7c4-4 7-4 10-5h9-1z" fill="#9fceff"/><path d="M221 131h0z" fill="none" stroke="#000"/></g></svg>